<svg width="45" height="45" viewBox="0 0 45 45" fill="none" xmlns="http://www.w3.org/2000/svg">
<path d="M22.51 10.9626C16.1238 10.9626 10.9726 16.1137 10.9726 22.5C10.9726 28.8863 16.1238 34.0374 22.51 34.0374C28.8963 34.0374 34.0475 28.8863 34.0475 22.5C34.0475 16.1137 28.8963 10.9626 22.51 10.9626ZM22.51 30.0008C18.3831 30.0008 15.0092 26.637 15.0092 22.5C15.0092 18.363 18.373 14.9992 22.51 14.9992C26.6471 14.9992 30.0109 18.363 30.0109 22.5C30.0109 26.637 26.637 30.0008 22.51 30.0008ZM37.2105 10.4906C37.2105 11.9868 36.0055 13.1817 34.5194 13.1817C33.0233 13.1817 31.8284 11.9767 31.8284 10.4906C31.8284 9.00452 33.0333 7.79956 34.5194 7.79956C36.0055 7.79956 37.2105 9.00452 37.2105 10.4906ZM44.8519 13.2219C44.6812 9.61704 43.8578 6.42391 41.2169 3.79309C38.5861 1.16228 35.393 0.338893 31.7882 0.15815C28.0729 -0.0527167 16.9371 -0.0527167 13.2219 0.15815C9.62708 0.328852 6.43395 1.15224 3.79309 3.78305C1.15224 6.41387 0.338893 9.60699 0.15815 13.2118C-0.0527167 16.9271 -0.0527167 28.0629 0.15815 31.7781C0.328852 35.383 1.15224 38.5761 3.79309 41.2069C6.43395 43.8377 9.61704 44.6611 13.2219 44.8418C16.9371 45.0527 28.0729 45.0527 31.7882 44.8418C35.393 44.6711 38.5861 43.8478 41.2169 41.2069C43.8478 38.5761 44.6712 35.383 44.8519 31.7781C45.0628 28.0629 45.0628 16.9371 44.8519 13.2219ZM40.0522 35.7645C39.2689 37.7326 37.7527 39.2489 35.7746 40.0421C32.8124 41.2169 25.7835 40.9458 22.51 40.9458C19.2366 40.9458 12.1976 41.2069 9.24551 40.0421C7.27742 39.2589 5.76119 37.7427 4.96792 35.7645C3.79309 32.8024 4.06421 25.7735 4.06421 22.5C4.06421 19.2265 3.80314 12.1876 4.96792 9.23547C5.75114 7.26738 7.26738 5.75114 9.24551 4.95788C12.2077 3.78305 19.2366 4.05417 22.51 4.05417C25.7835 4.05417 32.8224 3.79309 35.7746 4.95788C37.7427 5.7411 39.2589 7.25734 40.0522 9.23547C41.227 12.1976 40.9559 19.2265 40.9559 22.5C40.9559 25.7735 41.227 32.8124 40.0522 35.7645Z" fill="#2C3E54"/>
</svg>
