<svg width="27" height="26" viewBox="0 0 27 26" fill="none" xmlns="http://www.w3.org/2000/svg">
<path d="M23.7394 19.111L19.0932 16.3111C18.8946 16.192 18.6633 16.1421 18.4341 16.1688C18.2048 16.1956 17.99 16.2976 17.822 16.4595L15.2898 18.8938C12.0799 16.7978 9.68874 13.6249 8.5264 9.91934L11.4786 8.04213C11.6751 7.91802 11.8269 7.73208 11.9109 7.51248C11.9949 7.29287 12.0067 7.05155 11.9443 6.82506L10.4833 1.52115C10.4143 1.27676 10.2638 1.06488 10.0578 0.922059C9.8518 0.779234 9.60315 0.714411 9.35474 0.738768L4.64278 1.2168C4.40318 1.24115 4.17846 1.34762 4.00529 1.51883C3.83212 1.69005 3.72074 1.9159 3.68932 2.15953C2.20188 13.673 10.1398 24.185 21.4002 25.6606C21.6389 25.6921 21.8813 25.6399 22.0878 25.5128C22.2942 25.3856 22.4526 25.191 22.537 24.9605L24.1953 20.4306C24.2817 20.1903 24.2835 19.9271 24.2003 19.6863C24.1171 19.4454 23.9541 19.242 23.7394 19.111Z" fill="#284D7B"/>
</svg>
