<svg width="19" height="25" viewBox="0 0 19 25" fill="none" xmlns="http://www.w3.org/2000/svg">
<path d="M8.52368 24.3149C1.33445 14.3314 0 13.3068 0 9.6377C0 4.61184 4.25328 0.537598 9.5 0.537598C14.7467 0.537598 19 4.61184 19 9.6377C19 13.3068 17.6655 14.3314 10.4763 24.3149C10.0045 24.9678 8.99541 24.9677 8.52368 24.3149ZM9.5 13.4294C11.6861 13.4294 13.4583 11.7318 13.4583 9.6377C13.4583 7.54359 11.6861 5.84599 9.5 5.84599C7.31386 5.84599 5.54167 7.54359 5.54167 9.6377C5.54167 11.7318 7.31386 13.4294 9.5 13.4294Z" fill="#284D7B"/>
</svg>
